<?xml version="1.0" encoding="utf-8"?>
<!-- Generator: Adobe Illustrator 24.1.2, SVG Export Plug-In . SVG Version: 6.00 Build 0)  -->
<svg version="1.1" id="Layer_1" xmlns="http://www.w3.org/2000/svg" xmlns:xlink="http://www.w3.org/1999/xlink" x="0px" y="0px"
	 viewBox="0 0 148.8 148.8" style="enable-background:new 0 0 148.8 148.8;" xml:space="preserve">
<style type="text/css">
	.st0{fill:#221F20;}
</style>
<path class="st0" d="M86.3,15c-3.8-6.6-12.2-8.8-18.8-5c-2.1,1.2-3.8,2.9-5,5l-19.6,34l5,2.9C75.8,68,93.8,97,95.7,129.2H82
	C80,101.9,64.7,77.4,41,63.7l-5-2.9L17.7,92.6l5,2.9c12.3,7.2,20.6,19.7,22.5,33.8H13.8c-1.3,0-2.3-1-2.3-2.2c0-0.4,0.1-0.8,0.3-1.2
	l8.8-15.2c-3-2.5-6.3-4.4-10-5.7l-8.7,15.1c-3.8,6.6-1.5,15,5,18.8c2.1,1.2,4.5,1.8,6.9,1.8H57V135c0-18.4-8.8-35.6-23.7-46.4
	l6.9-11.9c19.1,13.2,30.5,35,30.6,58.3v5.7h36.6v-5.7c0-36.3-18.4-70.2-48.8-90.1l13.9-24.1c0.6-1.1,2-1.5,3.1-0.8
	c0.3,0.2,0.6,0.5,0.8,0.8L137,125.8c0.6,1.1,0.3,2.5-0.8,3.1c-0.4,0.2-0.8,0.3-1.2,0.3h-14.2c0.2,3.8,0.2,7.7,0,11.5h14.2
	c7.6,0,13.7-6.2,13.7-13.8c0-2.4-0.6-4.8-1.8-6.9L86.3,15z"/>
</svg>
